<svg width="189" height="84" viewBox="0 0 189 84" fill="none" xmlns="http://www.w3.org/2000/svg">
<path d="M13.9275 45.115C15.0975 45.115 16.125 44.965 17.01 44.665C17.91 44.365 18.6525 43.945 19.2375 43.405C19.8375 42.85 20.2875 42.1825 20.5875 41.4025C20.8875 40.6225 21.0375 39.7525 21.0375 38.7925C21.0375 37.8475 20.8875 37 20.5875 36.25C20.3025 35.5 19.8675 34.8625 19.2825 34.3375C18.6975 33.8125 17.955 33.415 17.055 33.145C16.17 32.86 15.1275 32.7175 13.9275 32.7175H9.1125V45.115H13.9275ZM13.9275 28.6C16.0425 28.6 17.8725 28.8475 19.4175 29.3425C20.9775 29.8375 22.26 30.535 23.265 31.435C24.285 32.32 25.0425 33.3925 25.5375 34.6525C26.0325 35.8975 26.28 37.2775 26.28 38.7925C26.28 40.3375 26.0175 41.755 25.4925 43.045C24.9675 44.32 24.1875 45.4225 23.1525 46.3525C22.1175 47.2675 20.8275 47.9875 19.2825 48.5125C17.7525 49.0225 15.9675 49.2775 13.9275 49.2775H9.1125V61H3.8475V28.6H13.9275ZM39.1932 37.69C40.8882 37.69 42.4182 37.9675 43.7832 38.5225C45.1632 39.0775 46.3332 39.865 47.2932 40.885C48.2682 41.905 49.0182 43.1425 49.5432 44.5975C50.0682 46.0525 50.3307 47.6875 50.3307 49.5025C50.3307 51.3175 50.0682 52.9525 49.5432 54.4075C49.0182 55.8625 48.2682 57.1075 47.2932 58.1425C46.3332 59.1625 45.1632 59.95 43.7832 60.505C42.4182 61.06 40.8882 61.3375 39.1932 61.3375C37.4832 61.3375 35.9382 61.06 34.5582 60.505C33.1932 59.95 32.0232 59.1625 31.0482 58.1425C30.0732 57.1075 29.3232 55.8625 28.7982 54.4075C28.2732 52.9525 28.0107 51.3175 28.0107 49.5025C28.0107 47.6875 28.2732 46.0525 28.7982 44.5975C29.3232 43.1425 30.0732 41.905 31.0482 40.885C32.0232 39.865 33.1932 39.0775 34.5582 38.5225C35.9382 37.9675 37.4832 37.69 39.1932 37.69ZM39.1932 57.5575C41.2632 57.5575 42.8007 56.8675 43.8057 55.4875C44.8257 54.0925 45.3357 52.105 45.3357 49.525C45.3357 46.945 44.8257 44.9575 43.8057 43.5625C42.8007 42.1525 41.2632 41.4475 39.1932 41.4475C37.0932 41.4475 35.5332 42.1525 34.5132 43.5625C33.4932 44.9575 32.9832 46.945 32.9832 49.525C32.9832 52.105 33.4932 54.0925 34.5132 55.4875C35.5332 56.8675 37.0932 57.5575 39.1932 57.5575ZM68.6813 42.2125C68.5613 42.4225 68.4263 42.5725 68.2763 42.6625C68.1263 42.7525 67.9388 42.7975 67.7138 42.7975C67.4588 42.7975 67.1813 42.7225 66.8813 42.5725C66.5813 42.4075 66.2288 42.2275 65.8238 42.0325C65.4188 41.8375 64.9388 41.665 64.3838 41.515C63.8438 41.35 63.2063 41.2675 62.4713 41.2675C61.8713 41.2675 61.3238 41.3425 60.8288 41.4925C60.3488 41.6275 59.9363 41.83 59.5913 42.1C59.2613 42.355 59.0063 42.6625 58.8263 43.0225C58.6463 43.3675 58.5563 43.7425 58.5563 44.1475C58.5563 44.6875 58.7213 45.1375 59.0513 45.4975C59.3813 45.8575 59.8163 46.1725 60.3563 46.4425C60.8963 46.6975 61.5113 46.93 62.2013 47.14C62.8913 47.35 63.5963 47.575 64.3163 47.815C65.0363 48.055 65.7413 48.3325 66.4313 48.6475C67.1213 48.9625 67.7363 49.3525 68.2763 49.8175C68.8163 50.2675 69.2513 50.8225 69.5813 51.4825C69.9113 52.1275 70.0763 52.915 70.0763 53.845C70.0763 54.925 69.8813 55.9225 69.4913 56.8375C69.1013 57.7525 68.5313 58.5475 67.7813 59.2225C67.0313 59.8975 66.0938 60.4225 64.9688 60.7975C63.8588 61.1725 62.5838 61.36 61.1438 61.36C60.3488 61.36 59.5763 61.285 58.8263 61.135C58.0913 61 57.3863 60.8125 56.7113 60.5725C56.0513 60.3175 55.4288 60.0175 54.8438 59.6725C54.2738 59.3275 53.7638 58.9525 53.3138 58.5475L54.4388 56.7025C54.5738 56.4775 54.7388 56.305 54.9338 56.185C55.1438 56.05 55.3988 55.9825 55.6988 55.9825C56.0138 55.9825 56.3213 56.0875 56.6213 56.2975C56.9363 56.4925 57.2963 56.71 57.7013 56.95C58.1213 57.19 58.6238 57.415 59.2088 57.625C59.7938 57.82 60.5213 57.9175 61.3913 57.9175C62.1113 57.9175 62.7338 57.835 63.2588 57.67C63.7838 57.49 64.2188 57.25 64.5638 56.95C64.9088 56.65 65.1638 56.3125 65.3288 55.9375C65.4938 55.5475 65.5763 55.135 65.5763 54.7C65.5763 54.115 65.4113 53.635 65.0813 53.26C64.7513 52.885 64.3088 52.5625 63.7538 52.2925C63.2138 52.0225 62.5913 51.7825 61.8863 51.5725C61.1963 51.3625 60.4913 51.1375 59.7713 50.8975C59.0513 50.6575 58.3388 50.38 57.6338 50.065C56.9438 49.75 56.3213 49.3525 55.7663 48.8725C55.2263 48.3775 54.7913 47.785 54.4613 47.095C54.1313 46.39 53.9663 45.535 53.9663 44.53C53.9663 43.615 54.1463 42.745 54.5063 41.92C54.8813 41.095 55.4213 40.3675 56.1263 39.7375C56.8463 39.1075 57.7238 38.6125 58.7588 38.2525C59.8088 37.8775 61.0163 37.69 62.3813 37.69C63.9263 37.69 65.3288 37.9375 66.5888 38.4325C67.8488 38.9275 68.9063 39.6025 69.7613 40.4575L68.6813 42.2125ZM81.9798 61.36C80.0748 61.36 78.6048 60.8275 77.5698 59.7625C76.5498 58.6825 76.0398 57.1675 76.0398 55.2175V41.8525H73.5198C73.2498 41.8525 73.0173 41.77 72.8223 41.605C72.6273 41.425 72.5298 41.1625 72.5298 40.8175V38.86L76.2423 38.32L77.2998 31.6825C77.3748 31.4275 77.5023 31.225 77.6823 31.075C77.8623 30.91 78.1023 30.8275 78.4023 30.8275H80.8773V38.365H87.2448V41.8525H80.8773V54.88C80.8773 55.705 81.0798 56.335 81.4848 56.77C81.8898 57.205 82.4298 57.4225 83.1048 57.4225C83.4798 57.4225 83.8023 57.3775 84.0723 57.2875C84.3423 57.1825 84.5748 57.0775 84.7698 56.9725C84.9648 56.8525 85.1298 56.7475 85.2648 56.6575C85.4148 56.5525 85.5573 56.5 85.6923 56.5C85.9623 56.5 86.1798 56.65 86.3448 56.95L87.7848 59.3125C87.0348 59.9725 86.1498 60.4825 85.1298 60.8425C84.1098 61.1875 83.0598 61.36 81.9798 61.36ZM110.408 38.05V61H107.483C106.838 61 106.425 60.6925 106.245 60.0775L105.885 57.94C105.405 58.45 104.895 58.915 104.355 59.335C103.83 59.755 103.268 60.115 102.668 60.415C102.068 60.715 101.423 60.9475 100.733 61.1125C100.058 61.2775 99.3304 61.36 98.5504 61.36C97.2904 61.36 96.1804 61.15 95.2204 60.73C94.2604 60.31 93.4504 59.7175 92.7904 58.9525C92.1454 58.1875 91.6579 57.2725 91.3279 56.2075C90.9979 55.1275 90.8329 53.9425 90.8329 52.6525V38.05H95.6704V52.6525C95.6704 54.1975 96.0229 55.3975 96.7279 56.2525C97.4479 57.1075 98.5354 57.535 99.9904 57.535C101.055 57.535 102.045 57.295 102.96 56.815C103.89 56.32 104.76 55.645 105.57 54.79V38.05H110.408ZM120.85 42.3025C121.57 40.8475 122.44 39.7075 123.46 38.8825C124.48 38.0425 125.702 37.6225 127.127 37.6225C127.622 37.6225 128.087 37.6825 128.522 37.8025C128.957 37.9075 129.347 38.0725 129.692 38.2975L129.355 41.9425C129.295 42.1975 129.197 42.3775 129.062 42.4825C128.942 42.5725 128.777 42.6175 128.567 42.6175C128.342 42.6175 128.02 42.58 127.6 42.505C127.18 42.415 126.737 42.37 126.272 42.37C125.597 42.37 124.997 42.4675 124.472 42.6625C123.962 42.8575 123.497 43.1425 123.077 43.5175C122.672 43.8925 122.312 44.35 121.997 44.89C121.682 45.43 121.39 46.045 121.12 46.735V61H116.282V38.05H119.095C119.605 38.05 119.957 38.1475 120.152 38.3425C120.347 38.5225 120.482 38.845 120.557 39.31L120.85 42.3025ZM147.155 46.9375C147.155 46.1275 147.035 45.3775 146.795 44.6875C146.57 43.9825 146.233 43.375 145.783 42.865C145.333 42.34 144.77 41.935 144.095 41.65C143.435 41.35 142.67 41.2 141.8 41.2C140.045 41.2 138.665 41.7025 137.66 42.7075C136.655 43.7125 136.018 45.1225 135.748 46.9375H147.155ZM135.613 49.9075C135.673 51.2125 135.875 52.345 136.22 53.305C136.565 54.25 137.023 55.0375 137.593 55.6675C138.178 56.2975 138.868 56.77 139.663 57.085C140.473 57.385 141.373 57.535 142.363 57.535C143.308 57.535 144.125 57.43 144.815 57.22C145.505 56.995 146.105 56.755 146.615 56.5C147.125 56.23 147.56 55.99 147.92 55.78C148.28 55.555 148.61 55.4425 148.91 55.4425C149.3 55.4425 149.6 55.5925 149.81 55.8925L151.183 57.67C150.613 58.345 149.968 58.915 149.248 59.38C148.528 59.845 147.763 60.2275 146.953 60.5275C146.143 60.8125 145.31 61.015 144.455 61.135C143.6 61.27 142.768 61.3375 141.958 61.3375C140.368 61.3375 138.89 61.075 137.525 60.55C136.175 60.01 134.998 59.2225 133.993 58.1875C133.003 57.1525 132.223 55.87 131.653 54.34C131.098 52.81 130.82 51.0475 130.82 49.0525C130.82 47.4625 131.068 45.9775 131.563 44.5975C132.073 43.2175 132.793 42.0175 133.723 40.9975C134.668 39.9775 135.808 39.175 137.143 38.59C138.493 37.99 140.015 37.69 141.71 37.69C143.12 37.69 144.425 37.9225 145.625 38.3875C146.825 38.8375 147.86 39.505 148.73 40.39C149.6 41.275 150.275 42.3625 150.755 43.6525C151.25 44.9275 151.498 46.3825 151.498 48.0175C151.498 48.7675 151.415 49.27 151.25 49.525C151.085 49.78 150.785 49.9075 150.35 49.9075H135.613Z" fill="#EAEAEB"/>
<path d="M188.76 69H179.38C178.727 69 178.202 68.8367 177.805 68.51C177.432 68.1833 177.128 67.81 176.895 67.39L165.17 47.965C164.983 48.5483 164.762 49.05 164.505 49.47L153.27 67.39C152.99 67.7867 152.663 68.16 152.29 68.51C151.94 68.8367 151.473 69 150.89 69H142.105L158.905 42.96L142.77 18.39H152.15C152.803 18.39 153.27 18.4833 153.55 18.67C153.853 18.8333 154.133 19.1133 154.39 19.51L165.905 38.06C166.138 37.4767 166.418 36.8933 166.745 36.31L177.315 19.685C177.572 19.2417 177.852 18.915 178.155 18.705C178.458 18.495 178.843 18.39 179.31 18.39H188.305L172.03 42.575L188.76 69Z" fill="#DC2436"/>
</svg>
