<svg width="102" height="48" viewBox="0 0 102 48" fill="none" xmlns="http://www.w3.org/2000/svg">
<path d="M7.428 24.528C8.052 24.528 8.6 24.448 9.072 24.288C9.552 24.128 9.948 23.904 10.26 23.616C10.58 23.32 10.82 22.964 10.98 22.548C11.14 22.132 11.22 21.668 11.22 21.156C11.22 20.652 11.14 20.2 10.98 19.8C10.828 19.4 10.596 19.06 10.284 18.78C9.972 18.5 9.576 18.288 9.096 18.144C8.624 17.992 8.068 17.916 7.428 17.916H4.86V24.528H7.428ZM7.428 15.72C8.556 15.72 9.532 15.852 10.356 16.116C11.188 16.38 11.872 16.752 12.408 17.232C12.952 17.704 13.356 18.276 13.62 18.948C13.884 19.612 14.016 20.348 14.016 21.156C14.016 21.98 13.876 22.736 13.596 23.424C13.316 24.104 12.9 24.692 12.348 25.188C11.796 25.676 11.108 26.06 10.284 26.34C9.468 26.612 8.516 26.748 7.428 26.748H4.86V33H2.052V15.72H7.428ZM20.9031 20.568C21.8071 20.568 22.6231 20.716 23.3511 21.012C24.0871 21.308 24.7111 21.728 25.2231 22.272C25.7431 22.816 26.1431 23.476 26.4231 24.252C26.7031 25.028 26.8431 25.9 26.8431 26.868C26.8431 27.836 26.7031 28.708 26.4231 29.484C26.1431 30.26 25.7431 30.924 25.2231 31.476C24.7111 32.02 24.0871 32.44 23.3511 32.736C22.6231 33.032 21.8071 33.18 20.9031 33.18C19.9911 33.18 19.1671 33.032 18.4311 32.736C17.7031 32.44 17.0791 32.02 16.5591 31.476C16.0391 30.924 15.6391 30.26 15.3591 29.484C15.0791 28.708 14.9391 27.836 14.9391 26.868C14.9391 25.9 15.0791 25.028 15.3591 24.252C15.6391 23.476 16.0391 22.816 16.5591 22.272C17.0791 21.728 17.7031 21.308 18.4311 21.012C19.1671 20.716 19.9911 20.568 20.9031 20.568ZM20.9031 31.164C22.0071 31.164 22.8271 30.796 23.3631 30.06C23.9071 29.316 24.1791 28.256 24.1791 26.88C24.1791 25.504 23.9071 24.444 23.3631 23.7C22.8271 22.948 22.0071 22.572 20.9031 22.572C19.7831 22.572 18.9511 22.948 18.4071 23.7C17.8631 24.444 17.5911 25.504 17.5911 26.88C17.5911 28.256 17.8631 29.316 18.4071 30.06C18.9511 30.796 19.7831 31.164 20.9031 31.164ZM36.63 22.98C36.566 23.092 36.494 23.172 36.414 23.22C36.334 23.268 36.234 23.292 36.114 23.292C35.978 23.292 35.83 23.252 35.67 23.172C35.51 23.084 35.322 22.988 35.106 22.884C34.89 22.78 34.634 22.688 34.338 22.608C34.05 22.52 33.71 22.476 33.318 22.476C32.998 22.476 32.706 22.516 32.442 22.596C32.186 22.668 31.966 22.776 31.782 22.92C31.606 23.056 31.47 23.22 31.374 23.412C31.278 23.596 31.23 23.796 31.23 24.012C31.23 24.3 31.318 24.54 31.494 24.732C31.67 24.924 31.902 25.092 32.19 25.236C32.478 25.372 32.806 25.496 33.174 25.608C33.542 25.72 33.918 25.84 34.302 25.968C34.686 26.096 35.062 26.244 35.43 26.412C35.798 26.58 36.126 26.788 36.414 27.036C36.702 27.276 36.934 27.572 37.11 27.924C37.286 28.268 37.374 28.688 37.374 29.184C37.374 29.76 37.27 30.292 37.062 30.78C36.854 31.268 36.55 31.692 36.15 32.052C35.75 32.412 35.25 32.692 34.65 32.892C34.058 33.092 33.378 33.192 32.61 33.192C32.186 33.192 31.774 33.152 31.374 33.072C30.982 33 30.606 32.9 30.246 32.772C29.894 32.636 29.562 32.476 29.25 32.292C28.946 32.108 28.674 31.908 28.434 31.692L29.034 30.708C29.106 30.588 29.194 30.496 29.298 30.432C29.41 30.36 29.546 30.324 29.706 30.324C29.874 30.324 30.038 30.38 30.198 30.492C30.366 30.596 30.558 30.712 30.774 30.84C30.998 30.968 31.266 31.088 31.578 31.2C31.89 31.304 32.278 31.356 32.742 31.356C33.126 31.356 33.458 31.312 33.738 31.224C34.018 31.128 34.25 31 34.434 30.84C34.618 30.68 34.754 30.5 34.842 30.3C34.93 30.092 34.974 29.872 34.974 29.64C34.974 29.328 34.886 29.072 34.71 28.872C34.534 28.672 34.298 28.5 34.002 28.356C33.714 28.212 33.382 28.084 33.006 27.972C32.638 27.86 32.262 27.74 31.878 27.612C31.494 27.484 31.114 27.336 30.738 27.168C30.37 27 30.038 26.788 29.742 26.532C29.454 26.268 29.222 25.952 29.046 25.584C28.87 25.208 28.782 24.752 28.782 24.216C28.782 23.728 28.878 23.264 29.07 22.824C29.27 22.384 29.558 21.996 29.934 21.66C30.318 21.324 30.786 21.06 31.338 20.868C31.898 20.668 32.542 20.568 33.27 20.568C34.094 20.568 34.842 20.7 35.514 20.964C36.186 21.228 36.75 21.588 37.206 22.044L36.63 22.98ZM43.7226 33.192C42.7066 33.192 41.9226 32.908 41.3706 32.34C40.8266 31.764 40.5546 30.956 40.5546 29.916V22.788H39.2106C39.0666 22.788 38.9426 22.744 38.8386 22.656C38.7346 22.56 38.6826 22.42 38.6826 22.236V21.192L40.6626 20.904L41.2266 17.364C41.2666 17.228 41.3346 17.12 41.4306 17.04C41.5266 16.952 41.6546 16.908 41.8146 16.908H43.1346V20.928H46.5306V22.788H43.1346V29.736C43.1346 30.176 43.2426 30.512 43.4586 30.744C43.6746 30.976 43.9626 31.092 44.3226 31.092C44.5226 31.092 44.6946 31.068 44.8386 31.02C44.9826 30.964 45.1066 30.908 45.2106 30.852C45.3146 30.788 45.4026 30.732 45.4746 30.684C45.5546 30.628 45.6306 30.6 45.7026 30.6C45.8466 30.6 45.9626 30.68 46.0506 30.84L46.8186 32.1C46.4186 32.452 45.9466 32.724 45.4026 32.916C44.8586 33.1 44.2986 33.192 43.7226 33.192ZM58.8842 20.76V33H57.3242C56.9802 33 56.7602 32.836 56.6642 32.508L56.4722 31.368C56.2162 31.64 55.9442 31.888 55.6562 32.112C55.3762 32.336 55.0762 32.528 54.7562 32.688C54.4362 32.848 54.0922 32.972 53.7242 33.06C53.3642 33.148 52.9762 33.192 52.5602 33.192C51.8882 33.192 51.2962 33.08 50.7842 32.856C50.2722 32.632 49.8402 32.316 49.4882 31.908C49.1442 31.5 48.8842 31.012 48.7082 30.444C48.5322 29.868 48.4442 29.236 48.4442 28.548V20.76H51.0242V28.548C51.0242 29.372 51.2122 30.012 51.5882 30.468C51.9722 30.924 52.5522 31.152 53.3282 31.152C53.8962 31.152 54.4242 31.024 54.9122 30.768C55.4082 30.504 55.8722 30.144 56.3042 29.688V20.76H58.8842ZM64.4533 23.028C64.8373 22.252 65.3013 21.644 65.8453 21.204C66.3893 20.756 67.0413 20.532 67.8013 20.532C68.0653 20.532 68.3133 20.564 68.5453 20.628C68.7773 20.684 68.9853 20.772 69.1693 20.892L68.9893 22.836C68.9573 22.972 68.9053 23.068 68.8333 23.124C68.7693 23.172 68.6813 23.196 68.5693 23.196C68.4493 23.196 68.2773 23.176 68.0533 23.136C67.8293 23.088 67.5933 23.064 67.3453 23.064C66.9853 23.064 66.6653 23.116 66.3853 23.22C66.1133 23.324 65.8653 23.476 65.6413 23.676C65.4253 23.876 65.2333 24.12 65.0653 24.408C64.8973 24.696 64.7413 25.024 64.5973 25.392V33H62.0173V20.76H63.5173C63.7893 20.76 63.9773 20.812 64.0813 20.916C64.1853 21.012 64.2573 21.184 64.2973 21.432L64.4533 23.028ZM78.4828 25.5C78.4828 25.068 78.4188 24.668 78.2908 24.3C78.1708 23.924 77.9908 23.6 77.7508 23.328C77.5108 23.048 77.2108 22.832 76.8508 22.68C76.4988 22.52 76.0908 22.44 75.6268 22.44C74.6908 22.44 73.9548 22.708 73.4188 23.244C72.8828 23.78 72.5428 24.532 72.3988 25.5H78.4828ZM72.3268 27.084C72.3588 27.78 72.4668 28.384 72.6508 28.896C72.8348 29.4 73.0788 29.82 73.3828 30.156C73.6948 30.492 74.0628 30.744 74.4868 30.912C74.9188 31.072 75.3988 31.152 75.9268 31.152C76.4308 31.152 76.8668 31.096 77.2348 30.984C77.6028 30.864 77.9228 30.736 78.1948 30.6C78.4668 30.456 78.6988 30.328 78.8908 30.216C79.0828 30.096 79.2588 30.036 79.4188 30.036C79.6268 30.036 79.7868 30.116 79.8988 30.276L80.6308 31.224C80.3268 31.584 79.9828 31.888 79.5988 32.136C79.2148 32.384 78.8068 32.588 78.3748 32.748C77.9428 32.9 77.4988 33.008 77.0428 33.072C76.5868 33.144 76.1428 33.18 75.7108 33.18C74.8628 33.18 74.0748 33.04 73.3468 32.76C72.6268 32.472 71.9988 32.052 71.4628 31.5C70.9348 30.948 70.5188 30.264 70.2148 29.448C69.9188 28.632 69.7708 27.692 69.7708 26.628C69.7708 25.78 69.9028 24.988 70.1668 24.252C70.4388 23.516 70.8228 22.876 71.3188 22.332C71.8228 21.788 72.4308 21.36 73.1428 21.048C73.8628 20.728 74.6748 20.568 75.5788 20.568C76.3308 20.568 77.0268 20.692 77.6668 20.94C78.3068 21.18 78.8588 21.536 79.3228 22.008C79.7868 22.48 80.1468 23.06 80.4028 23.748C80.6668 24.428 80.7988 25.204 80.7988 26.076C80.7988 26.476 80.7548 26.744 80.6668 26.88C80.5788 27.016 80.4188 27.084 80.1868 27.084H72.3268Z" fill="#00205B"/>
<path d="M101.72 39H96.36C95.9867 39 95.6867 38.9067 95.46 38.72C95.2467 38.5333 95.0733 38.32 94.94 38.08L88.24 26.98C88.1333 27.3133 88.0067 27.6 87.86 27.84L81.44 38.08C81.28 38.3067 81.0933 38.52 80.88 38.72C80.68 38.9067 80.4133 39 80.08 39H75.06L84.66 24.12L75.44 10.08H80.8C81.1733 10.08 81.44 10.1333 81.6 10.24C81.7733 10.3333 81.9333 10.4933 82.08 10.72L88.66 21.32C88.7933 20.9867 88.9533 20.6533 89.14 20.32L95.18 10.82C95.3267 10.5667 95.4867 10.38 95.66 10.26C95.8333 10.14 96.0533 10.08 96.32 10.08H101.46L92.16 23.9L101.72 39Z" fill="#DC2436"/>
</svg>
